<svg width="23" height="21" viewBox="0 0 23 21" fill="none" xmlns="http://www.w3.org/2000/svg">
<path d="M6.20794 1.09691e-08C4.98014 -7.4772e-05 3.7799 0.382232 2.75901 1.09857C1.73811 1.81491 0.942413 2.8331 0.472547 4.02439C0.00268017 5.21567 -0.120251 6.52653 0.119299 7.79119C0.35885 9.05585 0.950122 10.2175 1.81834 11.1292L10.9913 20.7627C11.0627 20.8379 11.1476 20.8976 11.241 20.9383C11.3344 20.979 11.4346 21 11.5358 21C11.6369 21 11.7371 20.979 11.8305 20.9383C11.9239 20.8976 12.0088 20.8379 12.0802 20.7627L21.2532 11.1276C22.3858 9.89845 23.0131 8.25101 22.9998 6.54055C22.9864 4.8301 22.3335 3.19367 21.1818 1.98415C20.0301 0.774636 18.472 0.0889396 16.8433 0.0749284C15.2146 0.0609172 13.6459 0.719714 12.4755 1.90925L11.5358 2.89457L10.5975 1.90925C9.43256 0.686887 7.85473 0.000180763 6.20794 1.09691e-08Z" fill="black"/>
</svg>
