<svg width="75" height="11" viewBox="0 0 75 11" fill="none" xmlns="http://www.w3.org/2000/svg">
<rect width="29" height="11" rx="2" fill="#FFD9CB"/>
<path d="M5.21203 8.5V2.84375H7.28234C8.48547 2.84375 9.07141 3.49219 9.07141 4.32812C9.07141 5.03125 8.64172 5.39062 8.11828 5.52344V5.57812C8.68078 5.60938 9.29016 6.10156 9.29016 6.97656C9.29016 7.84375 8.69641 8.5 7.37609 8.5H5.21203ZM7.29797 7.76562C8.11047 7.76562 8.43859 7.40625 8.43859 6.9375C8.43859 6.39844 8.00891 5.96094 7.32922 5.96094H6.07141V7.76562H7.29797ZM7.21203 5.28906C7.78234 5.28906 8.22766 4.9375 8.22766 4.39844C8.22766 3.92969 7.90734 3.57812 7.22766 3.57812H6.07141V5.28906H7.21203ZM10.292 8.5V2.84375H13.8389V3.58594H11.1514V5.29688H13.6514V6.03125H11.1514V7.75781H13.8702V8.5H10.292ZM18.0517 4.33594C17.997 3.8125 17.5361 3.50781 16.8877 3.50781C16.1923 3.50781 15.7548 3.85938 15.7548 4.34375C15.7548 4.88281 16.3408 5.08594 16.7861 5.19531L17.333 5.34375C18.0595 5.51562 18.958 5.91406 18.9658 6.9375C18.958 7.89062 18.2002 8.59375 16.8642 8.59375C15.5986 8.59375 14.8017 7.96094 14.747 6.92969H15.6064C15.6611 7.54688 16.2002 7.84375 16.8642 7.84375C17.583 7.84375 18.1064 7.47656 18.1142 6.92188C18.1064 6.42969 17.6455 6.22656 17.0439 6.07031L16.372 5.89062C15.4658 5.64062 14.8955 5.17969 14.8955 4.39062C14.8955 3.41406 15.7705 2.76562 16.9111 2.76562C18.0595 2.76562 18.8642 3.42188 18.8877 4.33594H18.0517ZM19.6864 3.58594V2.84375H24.0692V3.58594H22.3114V8.5H21.452V3.58594H19.6864Z" fill="#983C34"/>
<rect x="32" width="43" height="11" rx="2" fill="#BABABA"/>
<path d="M38.8558 2.84375V8.5H37.9886V3.70312H37.9573L36.6058 4.58594V3.76562L38.012 2.84375H38.8558ZM40.3733 8.5V7.875L42.3342 5.89844C42.9514 5.25 43.2639 4.89062 43.2639 4.39844C43.2639 3.84375 42.8108 3.48438 42.217 3.48438C41.592 3.48438 41.1858 3.88281 41.1858 4.48438H40.3733C40.3655 3.45312 41.1545 2.76562 42.2327 2.76562C43.3264 2.76562 44.0764 3.45312 44.0842 4.375C44.0764 5.00781 43.7795 5.50781 42.717 6.55469L41.5686 7.71875V7.76562H44.178V8.5H40.3733ZM51.1505 4.6875C51.0098 3.96094 50.4083 3.55469 49.6895 3.55469C48.713 3.55469 47.9864 4.30469 47.9864 5.67188C47.9864 7.04688 48.7208 7.78906 49.6895 7.78906C50.4005 7.78906 51.002 7.39062 51.1505 6.67188L52.0177 6.67969C51.838 7.79688 50.9239 8.57812 49.6817 8.57812C48.2052 8.57812 47.1348 7.47656 47.1348 5.67188C47.1348 3.85938 48.213 2.76562 49.6817 2.76562C50.877 2.76562 51.8223 3.46875 52.0177 4.6875H51.1505ZM54.7539 8.58594C53.5508 8.58594 52.7695 7.71094 52.7695 6.39844C52.7695 5.07812 53.5508 4.20312 54.7539 4.20312C55.9492 4.20312 56.7305 5.07812 56.7305 6.39844C56.7305 7.71094 55.9492 8.58594 54.7539 8.58594ZM54.7539 7.89062C55.5195 7.89062 55.8867 7.21094 55.8867 6.39844C55.8867 5.58594 55.5195 4.89062 54.7539 4.89062C53.9727 4.89062 53.6055 5.58594 53.6055 6.39844C53.6055 7.21094 53.9727 7.89062 54.7539 7.89062ZM58.4667 2.84375V8.5H57.6308V2.84375H58.4667ZM61.3592 8.58594C60.1561 8.58594 59.3748 7.71094 59.3748 6.39844C59.3748 5.07812 60.1561 4.20312 61.3592 4.20312C62.5545 4.20312 63.3358 5.07812 63.3358 6.39844C63.3358 7.71094 62.5545 8.58594 61.3592 8.58594ZM61.3592 7.89062C62.1248 7.89062 62.492 7.21094 62.492 6.39844C62.492 5.58594 62.1248 4.89062 61.3592 4.89062C60.578 4.89062 60.2108 5.58594 60.2108 6.39844C60.2108 7.21094 60.578 7.89062 61.3592 7.89062ZM64.2361 8.5V4.25781H65.0408V4.92969H65.0877C65.2439 4.47656 65.6658 4.19531 66.1658 4.19531C66.2673 4.19531 66.4314 4.20312 66.5173 4.21094V5.00781C66.447 4.99219 66.2517 4.96094 66.0798 4.96094C65.5017 4.96094 65.072 5.35938 65.072 5.91406V8.5H64.2361ZM69.6052 5.41406C69.527 5.07812 69.2614 4.85938 68.8005 4.85938C68.3239 4.85938 67.9802 5.10938 67.988 5.42969C67.9802 5.67969 68.1833 5.85938 68.652 5.96875L69.3239 6.125C70.1052 6.29688 70.4802 6.67188 70.488 7.27344C70.4802 8.03906 69.8395 8.58594 68.7536 8.58594C67.738 8.58594 67.1286 8.13281 67.027 7.34375H67.8786C67.9489 7.72656 68.2458 7.91406 68.7458 7.91406C69.2848 7.91406 69.6286 7.69531 69.6364 7.33594C69.6286 7.0625 69.4255 6.88281 68.9802 6.78125L68.3161 6.64062C67.5505 6.46875 67.152 6.0625 67.152 5.47656C67.152 4.71875 67.8083 4.20312 68.7927 4.20312C69.738 4.20312 70.3239 4.6875 70.4098 5.41406H69.6052Z" fill="black"/>
</svg>
