<svg width="39" height="43" viewBox="0 0 39 43" fill="none" xmlns="http://www.w3.org/2000/svg">
<path d="M35.8384 0.596787C33.7222 2.13239 28.0477 -0.327803 25.7349 1.91418L26.3972 -0.00024786C21.014 1.11671 19.9237 2.98568 19.9237 2.98568L20.6468 1.60292C16.1169 3.17314 15.3064 5.06378 15.1614 5.72153L15.1296 5.96116C15.1296 5.96116 15.1278 5.87447 15.1614 5.72153L15.3335 4.41903C8.91477 8.20308 9.40533 11.324 9.40533 11.324L9.26281 9.20134C5.44686 12.9777 5.36967 15.7168 5.36967 15.7168L5.13163 14.3569C2.77346 17.1082 3.4015 20.356 3.4015 20.356L2.77302 18.4849C-2.92141 30.7583 1.81166 34.9788 2.45666 35.4795L0.434229 33.9678C0.691903 36.3467 1.96208 38.2008 2.93822 39.3079C6.02837 36.6982 12.5799 29.6375 28.3404 10.0158C12.7529 29.7737 7.34104 37.7423 5.49027 41.3394C6.78835 42.0424 8.88021 42.8644 11.2558 42.5823L9.32941 40.9508C9.96288 41.4675 15.137 45.1319 25.8201 36.8315L23.8555 36.6387C23.8555 36.6387 27.1613 36.5227 29.3139 33.6075L27.9354 33.6805C27.9354 33.6805 30.5872 32.9913 33.412 28.4255L31.3114 28.7626C31.3114 28.7626 34.4629 28.5409 36.7114 21.4372L35.4818 21.8961C35.3396 21.9637 35.2544 21.9809 35.2544 21.9809L35.4818 21.8961C36.0914 21.6063 37.7503 20.3917 38.2642 15.6276L37.079 16.6424C37.079 16.6424 38.6562 15.1608 38.5375 9.66405L36.8198 10.7386C38.4862 7.98234 34.8165 3.00408 35.8382 0.597488L35.8384 0.596787Z" fill="#43A047"/>
</svg>
