<svg width="33" height="11" viewBox="0 0 33 11" fill="none" xmlns="http://www.w3.org/2000/svg">
<rect width="33" height="11" rx="2" fill="#A5D2A8"/>
<path d="M9.20813 6.17969V6.78125H6.34875V9.15625H5.62219V6.78125H2.80188V6.17969H9.20813ZM8.40344 2.53906V5.28906H3.60656V2.53906H8.40344ZM4.33313 3.13281V4.71094H7.66125V3.13281H4.33313ZM16.21 7.70312V8.32812H9.80375V7.70312H11.5538V6.46875H10.585V4.24219H14.6944V3.26562H10.5694V2.65625H15.4288V4.84375H11.3194V5.85938H15.5928V6.46875H14.5303V7.70312H16.21ZM12.2725 7.70312H13.8038V6.46875H12.2725V7.70312ZM17.7353 2.8125V4.48438H19.0712V2.8125H19.7587V7.4375H17.0322V2.8125H17.7353ZM17.7353 6.83594H19.0712V5.07031H17.7353V6.83594ZM22.8212 2.16406V9.16406H22.1103V5.51562H21.2431V8.82031H20.54V2.29688H21.2431V4.90625H22.1103V2.16406H22.8212ZM27.3466 4.61719V5.59375H30.1747V6.19531H23.7919V5.59375H26.6122V4.61719H27.3466ZM27.3544 2.57031C27.3544 3.46094 28.4481 4.24219 29.7997 4.41406L29.5106 5C28.3973 4.82422 27.4169 4.28125 26.9794 3.50781C26.5302 4.28125 25.5497 4.82422 24.4325 5L24.1591 4.41406C25.5028 4.24219 26.5966 3.45312 26.6044 2.57031V2.27344H27.3544V2.57031ZM26.9794 6.71094C28.495 6.71094 29.3934 7.14844 29.3934 7.9375C29.3934 8.71875 28.495 9.15625 26.9794 9.14844C25.4559 9.15625 24.5497 8.71875 24.5497 7.9375C24.5497 7.14844 25.4559 6.71094 26.9794 6.71094ZM26.9794 7.28125C25.9012 7.28125 25.2997 7.50781 25.2997 7.9375C25.2997 8.35938 25.9012 8.58594 26.9794 8.58594C28.0419 8.58594 28.6512 8.35938 28.6512 7.9375C28.6512 7.50781 28.0419 7.28125 26.9794 7.28125Z" fill="#005000"/>
</svg>
