<svg width="64" height="11" viewBox="0 0 64 11" fill="none" xmlns="http://www.w3.org/2000/svg">
<rect width="23" height="11" rx="2" fill="#FFD9CB"/>
<path d="M7.62703 2.84375V8.5H6.83797L3.97078 4.36719H3.92391V8.5H3.06453V2.84375H3.86141L6.72859 6.98438H6.78328V2.84375H7.62703ZM8.86328 8.5V2.84375H12.4102V3.58594H9.72266V5.29688H12.2227V6.03125H9.72266V7.75781H12.4414V8.5H8.86328ZM14.662 8.5L13.0917 2.84375H13.998L15.0995 7.21875H15.1464L16.2948 2.84375H17.1855L18.3339 7.21875H18.3808L19.4823 2.84375H20.3886L18.8183 8.5H17.9511L16.7636 4.27344H16.7167L15.5292 8.5H14.662Z" fill="#983C34"/>
<rect x="25" width="39" height="11" rx="2" fill="#BABABA"/>
<path d="M29.7425 2.84375V8.5H28.8753V3.70312H28.8441L27.4925 4.58594V3.76562L28.8988 2.84375H29.7425ZM33.3069 8.57812C32.26 8.57031 31.1663 7.95312 31.1663 5.85938C31.1663 3.89062 32.0178 2.76562 33.3772 2.76562C34.4163 2.76562 35.1428 3.41406 35.2756 4.3125H34.4241C34.3147 3.85156 33.9475 3.51562 33.3772 3.51562C32.5022 3.51562 31.9944 4.28125 31.9944 5.55469H32.0569C32.3616 5.07812 32.8928 4.78906 33.51 4.78906C34.5178 4.78906 35.3303 5.5625 35.3303 6.64844C35.3303 7.74219 34.5256 8.58594 33.3069 8.57812ZM33.2991 7.85938C33.9866 7.85938 34.4944 7.32812 34.4944 6.66406C34.4944 6.01562 34.0022 5.49219 33.3225 5.49219C32.6272 5.49219 32.1038 6.03906 32.0959 6.67188C32.1038 7.29688 32.6038 7.85938 33.2991 7.85938ZM42.2638 4.6875C42.1231 3.96094 41.5216 3.55469 40.8028 3.55469C39.8263 3.55469 39.0997 4.30469 39.0997 5.67188C39.0997 7.04688 39.8341 7.78906 40.8028 7.78906C41.5138 7.78906 42.1153 7.39062 42.2638 6.67188L43.1309 6.67969C42.9513 7.79688 42.0372 8.57812 40.795 8.57812C39.3184 8.57812 38.2481 7.47656 38.2481 5.67188C38.2481 3.85938 39.3263 2.76562 40.795 2.76562C41.9903 2.76562 42.9356 3.46875 43.1309 4.6875H42.2638ZM45.8672 8.58594C44.6641 8.58594 43.8828 7.71094 43.8828 6.39844C43.8828 5.07812 44.6641 4.20312 45.8672 4.20312C47.0625 4.20312 47.8438 5.07812 47.8438 6.39844C47.8438 7.71094 47.0625 8.58594 45.8672 8.58594ZM45.8672 7.89062C46.6328 7.89062 47 7.21094 47 6.39844C47 5.58594 46.6328 4.89062 45.8672 4.89062C45.0859 4.89062 44.7188 5.58594 44.7188 6.39844C44.7188 7.21094 45.0859 7.89062 45.8672 7.89062ZM49.58 2.84375V8.5H48.7441V2.84375H49.58ZM52.4725 8.58594C51.2694 8.58594 50.4881 7.71094 50.4881 6.39844C50.4881 5.07812 51.2694 4.20312 52.4725 4.20312C53.6678 4.20312 54.4491 5.07812 54.4491 6.39844C54.4491 7.71094 53.6678 8.58594 52.4725 8.58594ZM52.4725 7.89062C53.2381 7.89062 53.6053 7.21094 53.6053 6.39844C53.6053 5.58594 53.2381 4.89062 52.4725 4.89062C51.6912 4.89062 51.3241 5.58594 51.3241 6.39844C51.3241 7.21094 51.6912 7.89062 52.4725 7.89062ZM55.3494 8.5V4.25781H56.1541V4.92969H56.2009C56.3572 4.47656 56.7791 4.19531 57.2791 4.19531C57.3806 4.19531 57.5447 4.20312 57.6306 4.21094V5.00781C57.5603 4.99219 57.365 4.96094 57.1931 4.96094C56.615 4.96094 56.1853 5.35938 56.1853 5.91406V8.5H55.3494ZM60.7184 5.41406C60.6403 5.07812 60.3747 4.85938 59.9137 4.85938C59.4372 4.85938 59.0934 5.10938 59.1012 5.42969C59.0934 5.67969 59.2966 5.85938 59.7653 5.96875L60.4372 6.125C61.2184 6.29688 61.5934 6.67188 61.6012 7.27344C61.5934 8.03906 60.9528 8.58594 59.8669 8.58594C58.8512 8.58594 58.2419 8.13281 58.1403 7.34375H58.9919C59.0622 7.72656 59.3591 7.91406 59.8591 7.91406C60.3981 7.91406 60.7419 7.69531 60.7497 7.33594C60.7419 7.0625 60.5387 6.88281 60.0934 6.78125L59.4294 6.64062C58.6637 6.46875 58.2653 6.0625 58.2653 5.47656C58.2653 4.71875 58.9216 4.20312 59.9059 4.20312C60.8512 4.20312 61.4372 4.6875 61.5231 5.41406H60.7184Z" fill="black"/>
</svg>
