<svg width="107" height="107" viewBox="0 0 107 107" fill="none" xmlns="http://www.w3.org/2000/svg">
<g clip-path="url(#clip0_1056_8914)">
<path d="M98.0262 27.3869L87.3377 24.2267C81.9242 22.6261 76.3585 21.814 70.8016 21.7736L63.2934 28.3893L56.3796 23.4353C52.9105 24.2707 49.523 25.4146 46.2576 26.8533C39.5055 29.8343 33.4835 34.2499 28.61 39.7931C23.7366 45.3363 20.1286 51.8742 18.0368 58.9524L15.5739 67.2828C15.5739 67.2828 16.2369 66.6426 17.4437 65.5779C16.925 66.4837 16.6633 66.9917 16.6633 66.9917L16.4966 67.5556L26.5443 70.5263C31.8757 72.1026 37.3582 72.4136 42.6569 71.5553C43.271 71.4581 43.4983 70.6891 43.0358 70.2737L38.2391 66.0404C37.9362 65.8393 38.1676 65.4339 38.5008 65.5324L50.112 68.9654C50.6503 69.1245 51.2236 69.0711 51.7322 68.8591C56.0051 66.945 59.9369 64.2053 63.2588 60.7C64.4825 59.3894 66.7543 57.0788 67.9885 55.8271C68.5036 55.3104 68.6977 54.5595 68.5207 53.8383L66.7324 47.0661C66.7021 46.9522 66.7025 46.8324 66.7336 46.7187C66.7646 46.605 66.8251 46.5016 66.909 46.4189C66.9929 46.3361 67.0972 46.2771 67.2112 46.2476C67.3253 46.2182 67.4452 46.2194 67.5586 46.2512L72.2413 44.8652L78.9945 41.293L87.5861 38.2531C91.0152 35.574 94.5841 33.0788 98.2778 30.7781C98.7171 30.5177 99.0405 30.0838 99.1845 29.5968C99.2562 29.3757 99.283 29.1425 99.2633 28.911C99.2437 28.6794 99.178 28.4541 99.0701 28.2482C98.9622 28.0424 98.8143 27.8601 98.635 27.7122C98.4557 27.5643 98.2488 27.4537 98.0262 27.3869Z" fill="#F3AD61"/>
<path d="M51.0423 41.3679L74.4032 48.2748C75.0696 48.4719 75.8165 48.3025 76.3164 47.8371C79.9156 44.5252 83.7199 41.274 87.6249 38.2477L67.6577 32.3442L70.78 21.7839C65.9139 21.745 61.0618 22.3102 56.3351 23.4667L51.0423 41.3679Z" fill="#A56953"/>
<path d="M85.922 29.7725C85.8597 29.4351 85.6701 29.1346 85.3924 28.9332C85.1147 28.7318 84.7702 28.6448 84.4302 28.6904C71.0708 30.5101 58.2843 34.729 46.3362 41.2027C33.7287 48.0392 22.5628 57.2503 13.4541 68.3281C11.2445 71.0243 9.16173 73.8219 7.21251 76.7119C6.75447 77.4126 6.95529 78.336 7.68635 78.6916C8.31488 79.0168 9.0513 78.7885 9.41261 78.2264C11.3036 75.4129 13.3408 72.6706 15.5166 70.0249C24.4059 59.1907 35.2126 50.2613 47.5924 43.553C59.2491 37.2162 71.7187 33.1266 84.7583 31.3517C84.9413 31.3311 85.1181 31.273 85.2776 31.1809C85.4372 31.0887 85.5759 30.9647 85.6852 30.8164C85.7944 30.6681 85.8719 30.4988 85.9126 30.3192C85.9534 30.1395 85.9566 29.9534 85.922 29.7725C85.9144 29.7981 85.9144 29.7981 85.922 29.7725Z" fill="#D3883E"/>
</g>
<defs>
<clipPath id="clip0_1056_8914">
<rect width="85.5317" height="85.5317" fill="white" transform="translate(24.2507) rotate(16.4709)"/>
</clipPath>
</defs>
</svg>
