<svg width="114" height="13" viewBox="0 0 114 13" fill="none" xmlns="http://www.w3.org/2000/svg">
<rect width="66" height="13" rx="2" fill="#AAA7A7"/>
<path d="M9.805 3.14062V4.78125H10.8284V5.39062H9.805V6.99219H9.06281V3.14062H9.805ZM9.805 7.32031V8.94531H6.02375V9.53125H10.0472V10.0938H5.29719V8.42188H9.07063V7.875H5.28156V7.32031H9.805ZM8.48469 3.75781V4.34375H4.31281V3.75781H6.03156V3.10156H6.77375V3.75781H8.48469ZM6.39875 4.60938C7.42219 4.60938 8.09406 5.04688 8.09406 5.75781C8.09406 6.46875 7.42219 6.89844 6.39875 6.89844C5.3675 6.89844 4.69563 6.46875 4.69563 5.75781C4.69563 5.04688 5.3675 4.60938 6.39875 4.60938ZM6.39875 5.14062C5.79719 5.14062 5.40656 5.38281 5.41438 5.75781C5.40656 6.13281 5.79719 6.35938 6.39875 6.35938C7.00031 6.35938 7.39094 6.13281 7.39875 5.75781C7.39094 5.38281 7.00031 5.14062 6.39875 5.14062ZM17.1038 3.17188V8.25781H16.3616V3.17188H17.1038ZM17.3147 9.41406V10.0156H12.5256V7.74219H13.2756V9.41406H17.3147ZM13.3069 3.64062C14.3616 3.64062 15.1663 4.35938 15.1663 5.375C15.1663 6.40625 14.3616 7.11719 13.3069 7.11719C12.2522 7.11719 11.4397 6.40625 11.4397 5.375C11.4397 4.35938 12.2522 3.64062 13.3069 3.64062ZM13.3069 4.28906C12.6506 4.28906 12.1663 4.73438 12.1663 5.375C12.1663 6.03125 12.6506 6.46875 13.3069 6.46875C13.9475 6.46875 14.4397 6.03125 14.4397 5.375C14.4397 4.73438 13.9475 4.28906 13.3069 4.28906ZM23.8869 3.58594V4.22656C23.8869 4.95703 23.8869 5.76562 23.6447 6.90625H24.6759V7.50781H21.8634V10.1562H21.1213V7.50781H18.2931V6.90625H22.9181C23.0236 6.44922 23.09 6.03906 23.1291 5.66406L18.9728 5.875L18.8791 5.23438L23.1681 5.10156C23.1838 4.78906 23.1838 4.5 23.1838 4.22656V4.1875H19.0822V3.58594H23.8869ZM31.0684 3.46094V4.07031H30.0528V5.53906H31.0372V6.125H28.8419V6.91406H31.67V7.50781H25.2872V6.91406H28.1075V6.125H25.9044V5.53906H26.8966V4.07031H25.8731V3.46094H31.0684ZM30.9513 9.41406V10.0156H26.0919V8.07031H26.8419V9.41406H30.9513ZM27.6309 5.53906H29.3106V4.07031H27.6309V5.53906ZM36.7441 4.94531C36.7362 6.1875 37.455 7.45312 38.5019 7.96094L38.0409 8.55469C37.2792 8.16016 36.6894 7.375 36.3847 6.4375C36.0683 7.4375 35.455 8.27344 34.6581 8.6875L34.1972 8.08594C35.2753 7.57031 36.0019 6.22656 36.0019 4.94531V3.75H36.7441V4.94531ZM39.7675 3.16406V5.95312H40.8925V6.58594H39.7675V10.1641H39.0253V3.16406H39.7675ZM47.6912 6.57812V7.17969H41.3084V6.57812H42.8397V5.63281C42.3006 5.41406 41.9959 5.0625 41.9959 4.60156C41.9959 3.77344 42.9569 3.28906 44.4959 3.28906C46.0272 3.28906 46.9959 3.77344 46.9959 4.60156C46.9959 5.0625 46.6873 5.41797 46.1444 5.63281V6.57812H47.6912ZM44.4959 7.65625C46.0037 7.65625 46.91 8.10156 46.91 8.89844C46.91 9.71094 46.0037 10.1484 44.4959 10.1484C42.9725 10.1484 42.0662 9.71094 42.0662 8.89844C42.0662 8.10156 42.9725 7.65625 44.4959 7.65625ZM44.4959 8.22656C43.4256 8.22656 42.8162 8.46875 42.8162 8.89844C42.8162 9.33594 43.4256 9.58594 44.4959 9.57812C45.5506 9.58594 46.1678 9.33594 46.1678 8.89844C46.1678 8.46875 45.5506 8.22656 44.4959 8.22656ZM44.4959 3.85938C43.41 3.85938 42.7537 4.13281 42.7616 4.60156C42.7537 5.07031 43.41 5.33594 44.4959 5.33594C45.5819 5.33594 46.2303 5.07031 46.2303 4.60156C46.2303 4.13281 45.5819 3.85938 44.4959 3.85938ZM43.5897 6.57812H45.41V5.82812C45.1366 5.875 44.828 5.89844 44.4959 5.89844C44.1678 5.89844 43.8631 5.875 43.5897 5.83594V6.57812ZM49.8728 3.27344V3.88281H53.115V3.27344H53.8572V5.59375H49.1384V3.27344H49.8728ZM49.8728 5.03125H53.115V4.42969H49.8728V5.03125ZM54.6853 6.10156V6.70312H51.8572V7.30469H53.8806V8.9375H49.8025V9.52344H54.0759V10.0938H49.0759V8.40625H53.1463V7.85938H49.0681V7.30469H51.115V6.70312H48.3025V6.10156H54.6853ZM60.7497 3.16406V5.95312H61.8356V6.57031H60.7497V10.1562H60.0075V3.16406H60.7497ZM58.9216 3.89844C58.9137 5.92188 58.0231 7.72656 55.7184 8.86719L55.3044 8.28906C57.0583 7.41406 58.0114 6.14844 58.1637 4.51562H55.6559V3.89844H58.9216Z" fill="black" fill-opacity="0.6"/>
<rect x="69" width="45" height="13" rx="2" fill="#BABABA"/>
<path d="M76.6956 3.84375V9.5H75.8284V4.70312H75.7972L74.4456 5.58594V4.76562L75.8519 3.84375H76.6956ZM78.0881 8.39844V7.70312L80.5881 3.84375H81.6506V7.67188H82.4241V8.39844H81.6506V9.5H80.8381V8.39844H78.0881ZM78.9944 7.67188H80.8381V4.86719H80.7756L78.9944 7.625V7.67188ZM89.3106 5.6875C89.17 4.96094 88.5684 4.55469 87.8497 4.55469C86.8731 4.55469 86.1466 5.30469 86.1466 6.67188C86.1466 8.04688 86.8809 8.78906 87.8497 8.78906C88.5606 8.78906 89.1622 8.39062 89.3106 7.67188L90.1778 7.67969C89.9981 8.79688 89.0841 9.57812 87.8419 9.57812C86.3653 9.57812 85.295 8.47656 85.295 6.67188C85.295 4.85938 86.3731 3.76562 87.8419 3.76562C89.0372 3.76562 89.9825 4.46875 90.1778 5.6875H89.3106ZM92.9141 9.58594C91.7109 9.58594 90.9297 8.71094 90.9297 7.39844C90.9297 6.07812 91.7109 5.20312 92.9141 5.20312C94.1094 5.20312 94.8906 6.07812 94.8906 7.39844C94.8906 8.71094 94.1094 9.58594 92.9141 9.58594ZM92.9141 8.89062C93.6797 8.89062 94.0469 8.21094 94.0469 7.39844C94.0469 6.58594 93.6797 5.89062 92.9141 5.89062C92.1328 5.89062 91.7656 6.58594 91.7656 7.39844C91.7656 8.21094 92.1328 8.89062 92.9141 8.89062ZM96.6269 3.84375V9.5H95.7909V3.84375H96.6269ZM99.5194 9.58594C98.3162 9.58594 97.535 8.71094 97.535 7.39844C97.535 6.07812 98.3162 5.20312 99.5194 5.20312C100.715 5.20312 101.496 6.07812 101.496 7.39844C101.496 8.71094 100.715 9.58594 99.5194 9.58594ZM99.5194 8.89062C100.285 8.89062 100.652 8.21094 100.652 7.39844C100.652 6.58594 100.285 5.89062 99.5194 5.89062C98.7381 5.89062 98.3709 6.58594 98.3709 7.39844C98.3709 8.21094 98.7381 8.89062 99.5194 8.89062ZM102.396 9.5V5.25781H103.201V5.92969H103.248C103.404 5.47656 103.826 5.19531 104.326 5.19531C104.427 5.19531 104.592 5.20312 104.677 5.21094V6.00781C104.607 5.99219 104.412 5.96094 104.24 5.96094C103.662 5.96094 103.232 6.35938 103.232 6.91406V9.5H102.396ZM107.765 6.41406C107.687 6.07812 107.422 5.85938 106.961 5.85938C106.484 5.85938 106.14 6.10938 106.148 6.42969C106.14 6.67969 106.343 6.85938 106.812 6.96875L107.484 7.125C108.265 7.29688 108.64 7.67188 108.648 8.27344C108.64 9.03906 108 9.58594 106.914 9.58594C105.898 9.58594 105.289 9.13281 105.187 8.34375H106.039C106.109 8.72656 106.406 8.91406 106.906 8.91406C107.445 8.91406 107.789 8.69531 107.797 8.33594C107.789 8.0625 107.586 7.88281 107.14 7.78125L106.476 7.64062C105.711 7.46875 105.312 7.0625 105.312 6.47656C105.312 5.71875 105.968 5.20312 106.953 5.20312C107.898 5.20312 108.484 5.6875 108.57 6.41406H107.765Z" fill="black"/>
</svg>
