<svg width="48" height="15" viewBox="0 0 48 15" fill="none" xmlns="http://www.w3.org/2000/svg">
<rect width="48" height="15" fill="white"/>
<path d="M4.78125 4.42969H5.83594L8.21875 10.25H8.30664L10.6895 4.42969H11.7441V11.5H10.9141V6.1582H10.8457L8.64844 11.5H7.86719L5.66992 6.1582H5.61133V11.5H4.78125V4.42969ZM19.3832 7.96484C19.3832 10.2012 18.0648 11.5977 16.2582 11.5977C14.4418 11.5977 13.1332 10.2012 13.1332 7.96484C13.1332 5.72852 14.4418 4.33203 16.2582 4.33203C18.0648 4.33203 19.3832 5.72852 19.3832 7.96484ZM18.5336 7.96484C18.5336 6.13867 17.5375 5.15234 16.2582 5.15234C14.9789 5.15234 13.9828 6.13867 13.9828 7.96484C13.9828 9.79102 14.9789 10.7773 16.2582 10.7773C17.5375 10.7773 18.5336 9.79102 18.5336 7.96484ZM20.7723 11.5V4.42969H23.1746C24.8348 4.42969 25.5867 5.34766 25.5867 6.60742C25.5867 7.54004 25.1668 8.27734 24.2684 8.58984L25.8602 11.5H24.8348L23.3602 8.74609L23.1844 8.75586H21.6512V11.5H20.7723ZM21.6512 7.95508H23.1453C24.2684 7.95508 24.7176 7.44727 24.7176 6.60742C24.7176 5.75781 24.2684 5.21094 23.1355 5.21094H21.6512V7.95508ZM26.9562 11.5V4.42969H31.2434V5.21094H27.8352V7.57422H31.0187V8.3457H27.8352V10.7188H31.2922V11.5H26.9562ZM39.6953 11.0703L39.1484 10.543L41.3359 8.35547H35.7012V7.58398H41.3359L39.1484 5.39648L39.6953 4.85938L42.8008 7.96484L39.6953 11.0703Z" fill="black"/>
</svg>
