<svg width="30" height="30" viewBox="0 0 30 30" fill="none" xmlns="http://www.w3.org/2000/svg">
<rect width="30" height="30" rx="5" fill="black"/>
<path d="M15 8C19.4194 8 23 10.6787 23 13.9817C23 17.2847 19.4194 19.9635 15 19.9635C14.5139 19.9635 14.0389 19.9318 13.5778 19.8686C13.1167 20.1768 10.45 21.9521 10.1972 21.9863C10.1972 21.9863 10.0944 22.0232 10.0056 21.9758C9.91667 21.9284 9.93333 21.7993 9.93333 21.7993C9.96111 21.6255 10.6278 19.4498 10.75 19.0468C8.49722 17.9906 7 16.1152 7 13.9791C7 10.6761 10.5806 8 15 8ZM9.39444 12.1933C9.14444 12.1933 8.94167 12.3855 8.94167 12.6226C8.94167 12.8597 9.14444 13.0519 9.39444 13.0519H10.1139V15.6517C10.1139 15.8834 10.3222 16.0705 10.575 16.0705C10.8278 16.0705 11.0361 15.8834 11.0361 15.6517V13.0519H11.7556C12.0056 13.0519 12.2083 12.8597 12.2083 12.6226C12.2083 12.3855 12.0056 12.1933 11.7556 12.1933H9.39167H9.39444ZM13.3056 12.1933C13.0056 12.1985 12.7694 12.4145 12.6917 12.6252L11.5889 15.3804C11.45 15.7939 11.5722 15.9467 11.6972 16.002C11.7861 16.0415 11.8889 16.0626 11.9917 16.0626C12.1833 16.0626 12.3306 15.9888 12.375 15.8703L12.6028 15.3013H14.0111L14.2389 15.8676C14.2833 15.9862 14.4306 16.0599 14.6222 16.0599C14.725 16.0599 14.825 16.0389 14.9167 15.9993C15.0444 15.944 15.1667 15.7913 15.025 15.3777L13.9222 12.6252C13.8444 12.4145 13.6083 12.1985 13.3056 12.1933ZM18.3306 12.1933C18.075 12.1933 17.8694 12.3908 17.8694 12.6305V15.6253C17.8694 15.8676 18.0778 16.0626 18.3306 16.0626C18.5833 16.0626 18.7917 15.865 18.7917 15.6253V14.6718L18.9528 14.5191L20.0333 15.8782C20.1222 15.9888 20.2556 16.052 20.4028 16.052C20.5028 16.052 20.6 16.023 20.6806 15.9651C20.7778 15.894 20.8417 15.7913 20.8583 15.6754C20.875 15.5595 20.8444 15.4436 20.7694 15.3514L19.6333 13.9238L20.6861 12.9281C20.7583 12.8597 20.7944 12.7648 20.7889 12.6621C20.7833 12.5594 20.7333 12.4619 20.6528 12.3855C20.5667 12.3039 20.45 12.2565 20.3361 12.2565C20.2361 12.2565 20.1472 12.2907 20.0806 12.3539L18.7944 13.5761V12.6358C18.7944 12.3934 18.5861 12.1985 18.3333 12.1985L18.3306 12.1933ZM15.7944 12.1933C15.5361 12.1933 15.325 12.3908 15.325 12.6305V15.6016C15.325 15.8229 15.5222 16.002 15.7667 16.0046H17.2472C17.4917 16.0046 17.6889 15.8229 17.6889 15.6016C17.6889 15.3804 17.4889 15.2013 17.2472 15.2013H16.2667V12.6305C16.2667 12.3882 16.0556 12.1933 15.7944 12.1933ZM13.7667 14.527H12.8444L13.3056 13.2864L13.7667 14.527Z" fill="#E6E6E6"/>
</svg>
