<svg width="30" height="30" viewBox="0 0 30 30" fill="none" xmlns="http://www.w3.org/2000/svg">
<rect width="30" height="30" rx="5" fill="black"/>
<path d="M18.8504 9.89292C18.2784 9.24794 17.9631 8.4198 17.9632 7.5625H15.3767V17.8097C15.3571 18.3644 15.1201 18.8899 14.7157 19.2753C14.3112 19.6608 13.7709 19.876 13.2087 19.8757C12.0201 19.8757 11.0324 18.9171 11.0324 17.7271C11.0324 16.3057 12.4219 15.2397 13.8532 15.6776V13.0662C10.9654 12.6861 8.4375 14.9008 8.4375 17.7271C8.4375 20.479 10.7478 22.4375 13.2003 22.4375C15.8287 22.4375 17.9632 20.3302 17.9632 17.7271V12.5291C19.012 13.2727 20.2712 13.6717 21.5625 13.6695V11.116C21.5625 11.116 19.9888 11.1903 18.8504 9.89292Z" fill="#E6E6E6"/>
</svg>
