<svg width="30" height="30" viewBox="0 0 30 30" fill="none" xmlns="http://www.w3.org/2000/svg">
<rect width="30" height="30" rx="5" fill="black"/>
<path d="M18.334 12.667C18.8863 12.667 19.334 12.2193 19.334 11.667C19.334 11.1147 18.8863 10.667 18.334 10.667C17.7817 10.667 17.334 11.1147 17.334 11.667C17.334 12.2193 17.7817 12.667 18.334 12.667Z" fill="#E6E6E6"/>
<path d="M17.6667 9C19.5067 9 21 10.4933 21 12.3333V17.6667C21 19.5067 19.5067 21 17.6667 21H12.3333C10.4933 21 9 19.5067 9 17.6667V12.3333C9 10.4933 10.4933 9 12.3333 9H15H17.6667Z" stroke="#E6E6E6" stroke-width="2" stroke-linecap="round" stroke-linejoin="round"/>
<path d="M15.0007 12.333C16.474 12.333 17.6673 13.5263 17.6673 14.9997C17.6673 16.473 16.474 17.6663 15.0007 17.6663C13.5273 17.6663 12.334 16.473 12.334 14.9997C12.334 13.5263 13.5273 12.333 15.0007 12.333Z" stroke="#E6E6E6" stroke-width="2" stroke-linecap="round" stroke-linejoin="round"/>
</svg>
